<mxfile host="app.diagrams.net" modified="2023-05-19T06:00:16.441Z" agent="Mozilla/5.0 (Windows NT 10.0; Win64; x64) AppleWebKit/537.36 (KHTML, like Gecko) Chrome/113.0.0.0 Safari/537.36 Edg/113.0.1774.42" version="21.3.2" etag="x22n25L6X5LjmDX5_iJ2" type="github">
  <diagram name="第 1 页" id="ftUdE1zqT58UjcB_WECc">
    <mxGraphModel>
      <root>
        <mxCell id="0" />
        <mxCell id="1" parent="0" />
      </root>
    </mxGraphModel>
  </diagram>
</mxfile>
